<svg xmlns="http://www.w3.org/2000/svg" viewBox="0 0 600 900"><rect width="600" height="900" fill="#101E33"/><rect x="0" y="0" width="600" height="150" fill="#182A47"/><rect x="0" y="150" width="600" height="150" fill="#101E33"/><rect x="0" y="300" width="600" height="120" fill="#182A47"/><circle cx="30" cy="30" r="3.2" fill="#F7F0E4" fill-opacity="0.18"/><circle cx="66" cy="30" r="3.2" fill="#F7F0E4" fill-opacity="0.18"/><circle cx="102" cy="30" r="3.2" fill="#F7F0E4" fill-opacity="0.18"/><circle cx="138" cy="30" r="3.2" fill="#F7F0E4" fill-opacity="0.18"/><circle cx="174" cy="30" r="3.2" fill="#F7F0E4" fill-opacity="0.18"/><circle cx="210" cy="30" r="3.2" fill="#F7F0E4" fill-opacity="0.18"/><circle cx="246" cy="30" r="3.2" fill="#F7F0E4" fill-opacity="0.18"/><circle cx="282" cy="30" r="3.2" fill="#F7F0E4" fill-opacity="0.18"/><circle cx="318" cy="30" r="3.2" fill="#F7F0E4" fill-opacity="0.18"/><circle cx="354" cy="30" r="3.2" fill="#F7F0E4" fill-opacity="0.18"/><circle cx="390" cy="30" r="3.2" fill="#F7F0E4" fill-opacity="0.18"/><circle cx="426" cy="30" r="3.2" fill="#F7F0E4" fill-opacity="0.18"/><circle cx="462" cy="30" r="3.2" fill="#F7F0E4" fill-opacity="0.18"/><circle cx="498" cy="30" r="3.2" fill="#F7F0E4" fill-opacity="0.18"/><circle cx="534" cy="30" r="3.2" fill="#F7F0E4" fill-opacity="0.18"/><circle cx="570" cy="30" r="3.2" fill="#F7F0E4" fill-opacity="0.18"/><circle cx="48" cy="66" r="3.2" fill="#F7F0E4" fill-opacity="0.18"/><circle cx="84" cy="66" r="3.2" fill="#F7F0E4" fill-opacity="0.18"/><circle cx="120" cy="66" r="3.2" fill="#F7F0E4" fill-opacity="0.18"/><circle cx="156" cy="66" r="3.2" fill="#F7F0E4" fill-opacity="0.18"/><circle cx="192" cy="66" r="3.2" fill="#F7F0E4" fill-opacity="0.18"/><circle cx="228" cy="66" r="3.2" fill="#F7F0E4" fill-opacity="0.18"/><circle cx="264" cy="66" r="3.2" fill="#F7F0E4" fill-opacity="0.18"/><circle cx="300" cy="66" r="3.2" fill="#F7F0E4" fill-opacity="0.18"/><circle cx="336" cy="66" r="3.2" fill="#F7F0E4" fill-opacity="0.18"/><circle cx="372" cy="66" r="3.2" fill="#F7F0E4" fill-opacity="0.18"/><circle cx="408" cy="66" r="3.2" fill="#F7F0E4" fill-opacity="0.18"/><circle cx="444" cy="66" r="3.2" fill="#F7F0E4" fill-opacity="0.18"/><circle cx="480" cy="66" r="3.2" fill="#F7F0E4" fill-opacity="0.18"/><circle cx="516" cy="66" r="3.2" fill="#F7F0E4" fill-opacity="0.18"/><circle cx="552" cy="66" r="3.2" fill="#F7F0E4" fill-opacity="0.18"/><circle cx="30" cy="102" r="3.2" fill="#F7F0E4" fill-opacity="0.18"/><circle cx="66" cy="102" r="3.2" fill="#F7F0E4" fill-opacity="0.18"/><circle cx="102" cy="102" r="3.2" fill="#F7F0E4" fill-opacity="0.18"/><circle cx="138" cy="102" r="3.2" fill="#F7F0E4" fill-opacity="0.18"/><circle cx="174" cy="102" r="3.2" fill="#F7F0E4" fill-opacity="0.18"/><circle cx="210" cy="102" r="3.2" fill="#F7F0E4" fill-opacity="0.18"/><circle cx="246" cy="102" r="3.2" fill="#F7F0E4" fill-opacity="0.18"/><circle cx="282" cy="102" r="3.2" fill="#F7F0E4" fill-opacity="0.18"/><circle cx="318" cy="102" r="3.2" fill="#F7F0E4" fill-opacity="0.18"/><circle cx="354" cy="102" r="3.2" fill="#F7F0E4" fill-opacity="0.18"/><circle cx="390" cy="102" r="3.2" fill="#F7F0E4" fill-opacity="0.18"/><circle cx="426" cy="102" r="3.2" fill="#F7F0E4" fill-opacity="0.18"/><circle cx="462" cy="102" r="3.2" fill="#F7F0E4" fill-opacity="0.18"/><circle cx="498" cy="102" r="3.2" fill="#F7F0E4" fill-opacity="0.18"/><circle cx="534" cy="102" r="3.2" fill="#F7F0E4" fill-opacity="0.18"/><circle cx="570" cy="102" r="3.2" fill="#F7F0E4" fill-opacity="0.18"/><circle cx="318" cy="452" r="152" fill="#E0621A"/><circle cx="298" cy="436" r="152" fill="#FF8A2A"/><circle cx="298" cy="436" r="96" fill="#FFC58F" fill-opacity="0.35"/><rect x="0" y="560" width="600" height="60" fill="#34527D"/><rect x="0" y="580" width="90" height="240" fill="#060B12"/><rect x="86" y="650" width="70" height="170" fill="#060B12"/><rect x="156" y="540" width="110" height="280" fill="#060B12"/><rect x="266" y="620" width="80" height="200" fill="#060B12"/><rect x="346" y="520" width="120" height="300" fill="#060B12"/><rect x="466" y="630" width="70" height="190" fill="#060B12"/><rect x="536" y="570" width="64" height="250" fill="#060B12"/><rect x="30" y="620" width="16" height="22" fill="#F7F0E4"/><rect x="60" y="660" width="16" height="22" fill="#FF8A2A"/><rect x="110" y="700" width="16" height="22" fill="#FF8A2A"/><rect x="180" y="590" width="16" height="22" fill="#FF8A2A"/><rect x="210" y="640" width="16" height="22" fill="#F7F0E4"/><rect x="240" y="700" width="16" height="22" fill="#FF8A2A"/><rect x="292" y="660" width="16" height="22" fill="#FF8A2A"/><rect x="376" y="580" width="16" height="22" fill="#FF8A2A"/><rect x="410" y="640" width="16" height="22" fill="#F7F0E4"/><rect x="438" y="700" width="16" height="22" fill="#FF8A2A"/><rect x="486" y="680" width="16" height="22" fill="#FF8A2A"/><rect x="556" y="620" width="16" height="22" fill="#FF8A2A"/><rect x="0" y="820" width="600" height="80" fill="#0A1220"/><rect x="120" y="850" width="60" height="6" fill="#FF8A2A" fill-opacity="0.35"/><rect x="300" y="850" width="60" height="6" fill="#FF8A2A" fill-opacity="0.35"/><rect x="480" y="850" width="60" height="6" fill="#FF8A2A" fill-opacity="0.35"/><rect x="5" y="5" width="590" height="890" fill="none" stroke="#060B12" stroke-width="10"/></svg>