<svg xmlns="http://www.w3.org/2000/svg" viewBox="0 0 600 900"><rect width="600" height="900" fill="#101E33"/><circle cx="572" cy="241" r="1.6" fill="#FF8A2A" fill-opacity="0.8"/><circle cx="521" cy="26" r="2.2" fill="#F7F0E4" fill-opacity="0.9"/><circle cx="363" cy="182" r="2.2" fill="#F7F0E4" fill-opacity="0.9"/><circle cx="68" cy="101" r="1.6" fill="#FF8A2A" fill-opacity="0.8"/><circle cx="282" cy="251" r="2.2" fill="#F7F0E4" fill-opacity="0.9"/><circle cx="120" cy="149" r="2.2" fill="#F7F0E4" fill-opacity="0.9"/><circle cx="224" cy="42" r="1.6" fill="#FF8A2A" fill-opacity="0.8"/><circle cx="108" cy="30" r="2.2" fill="#F7F0E4" fill-opacity="0.9"/><circle cx="84" cy="32" r="2.2" fill="#F7F0E4" fill-opacity="0.9"/><circle cx="364" cy="252" r="1.6" fill="#FF8A2A" fill-opacity="0.8"/><circle cx="120" cy="140" r="34" fill="#F7F0E4"/><circle cx="135" cy="128" r="28" fill="#101E33"/><rect x="0" y="550" width="100" height="90" fill="#23395C"/><rect x="420" y="520" width="90" height="120" fill="#23395C"/><rect x="510" y="560" width="90" height="80" fill="#23395C"/><polygon points="330,318 210,780 470,780" fill="#FF8A2A" fill-opacity="0.16"/><rect x="0" y="700" width="600" height="200" fill="#0A1220"/><ellipse cx="336" cy="762" rx="168" ry="34" fill="#FF8A2A" fill-opacity="0.25"/><rect x="322" y="318" width="14" height="470" fill="#060B12"/><rect x="322" y="318" width="90" height="12" fill="#060B12"/><polygon points="392,330 448,330 436,296 404,296" fill="#060B12"/><rect x="408" y="330" width="24" height="10" fill="#FF8A2A"/><rect x="296" y="786" width="66" height="10" fill="#060B12"/><path d="M300 762 Q298 706 336 702 Q376 700 376 756 L376 762 Z" fill="#060B12"/><polygon points="310,708 318,682 330,704" fill="#060B12"/><polygon points="338,702 350,680 360,704" fill="#060B12"/><circle cx="322" cy="722" r="4.5" fill="#FF8A2A"/><circle cx="346" cy="722" r="4.5" fill="#FF8A2A"/><path d="M282 760 q-20 4 -34 -6" stroke="#060B12" stroke-width="10" fill="none" stroke-linecap="round"/><rect x="296" y="810" width="26" height="8" fill="#F7F0E4" fill-opacity="0.4"/><rect x="288" y="846" width="26" height="8" fill="#F7F0E4" fill-opacity="0.4"/><rect x="288" y="878" width="26" height="8" fill="#F7F0E4" fill-opacity="0.4"/><rect x="5" y="5" width="590" height="890" fill="none" stroke="#060B12" stroke-width="10"/></svg>